<svg version="1.1" xmlns="http://www.w3.org/2000/svg" viewBox="0 0 210.14785718969915 226.18764643949208" width="210.14785718969915" height="226.18764643949208">
  <!-- svg-source:excalidraw -->
  
  <defs>
    <style class="style-fonts">
      @font-face {
        font-family: "Virgil";
        src: url("https://excalidraw.com/Virgil.woff2");
      }
      @font-face {
        font-family: "Cascadia";
        src: url("https://excalidraw.com/Cascadia.woff2");
      }
    </style>
  </defs>
  <g stroke-linecap="round"><g transform="translate(72.10598682202078 72.13841442334052) rotate(0 32.96794177282868 40.95540879640552)" fill-rule="evenodd"><path d="M0 0 L30.81 -38.13 L40.83 -48.85 L50.84 -57.19 L60.38 -61.71 L69 -61 L77.72 -54.24 L87.43 -42.45 L97.44 -26.94 L107.06 -9 L115.62 10.06 L122.41 28.95 L126.77 46.37 L128 61 L125.94 74.3 L121.17 88.13 L114.13 101.79 L105.25 114.63 L94.96 125.94 L83.7 135.06 L71.9 141.31 L60 144 L46.17 142.42 L29.21 136.9 L10.51 128.35 L-8.56 117.69 L-26.63 105.81 L-42.3 93.63 L-54.22 82.06 L-58.34 76.78 L-61 72 L-61.67 62.51 L-57.12 52.31 L-48.77 41.84 L-38.06 31.5 L0 0" stroke="none" stroke-width="0" fill="#82c91e" fill-rule="evenodd"></path><path d="M0 0 C11.5 -10.17, 47.67 -71.17, 69 -61 C90.33 -50.83, 129.5 26.83, 128 61 C126.5 95.17, 91.5 142.17, 60 144 C28.5 145.83, -51 96, -61 72 C-71 48, -10.17 12, 0 0 M0 0 C11.5 -10.17, 47.67 -71.17, 69 -61 C90.33 -50.83, 129.5 26.83, 128 61 C126.5 95.17, 91.5 142.17, 60 144 C28.5 145.83, -51 96, -61 72 C-71 48, -10.17 12, 0 0" stroke="#000000" stroke-width="2" fill="none"></path></g></g></svg>